# xmcd
#
# Track frame offsets:
#	150
#	12650
#	25887
#	36475
#	49850
#	63225
#	75062
#	87812
#	109225
#	120862
#	137175
#	152037
#	167975
#	185087
#	199425
#	211137
#	224487
#	237512
#	250075
#	265250
#
# Disc length: 3744
#
# Revision: 2
# Processed by: cddbd v1.5.1PL0 Copyright (c) Steve Scherf et al.
# Submitted via: CDex 1.51
# Normalized: r0:DSETVAR1,TSWAP
#
DISCID=1f0e9e14
DTITLE=Various Artist - The Best of Country
DYEAR=1998
DGENRE=Country
TTITLE0=LYNN ANDERSON - 01 LISTEN TO A COUNTRY SONG
TTITLE1=FREDDY WELLER - 02 GAMES PEOPLE PLAY
TTITLE2=JOHNNY CASH - 03 BIG  RIVER
TTITLE3=LEFTY FRIZZELL - 04 HONKY TONK STARDUST COWBOY
TTITLE4=TAMMY WYNETTE - 05 APARTMENT #9
TTITLE5=TAMMY WYNETTE - 06 I DON'T WANNA PLAY HOUSE
TTITLE6=MICKEY GILLEY - 07 ROOM FULL OF ROSES
TTITLE7=RAY PRICE - 08 NIGHT LIFE
TTITLE8=MARTY ROBBINS - 09 AMONG MY SOUVENIRS
TTITLE9=WILLIE NELSON - 10 JUST OUT OF REACH
TTITLE10=WILLE NELSON - 11 SOMETHING
TTITLE11=MERLE HAGGARD - 12 I ALWAYS GET LUCKY WITH YOU
TTITLE12=RICKY SKAGGS - 13 SWEET TEMPTATION
TTITLE13=ROSANNE CASH - 14 TENNESSEE FLAT TOP BOX
TTITLE14=RICK NELSON - 15 THAT'S ALRIGHT MAMA
TTITLE15=GEORGE JONES - 16 THE WINDOW UP ABOVE
TTITLE16=DOLLY PARTON,LORETTA LYNN,TAMMY WYNETTE - 17 IT WASN'T GOD WHO MADE HONKY TONK ANGEL
TTITLE17=RICKY SKAGGS - 18 I'LL TAKE THE BLAME
TTITLE18=MERLE HAGGARD - 19 A FRIEND IN CALIFORNIA
TTITLE19=MERLE HAGGARD and WILLIE NELSON - 20 YESTERDAY
EXTD=YEAR: 1998
EXTT0=
EXTT1=
EXTT2=
EXTT3=
EXTT4=
EXTT5=
EXTT6=
EXTT7=
EXTT8=
EXTT9=
EXTT10=
EXTT11=
EXTT12=
EXTT13=
EXTT14=
EXTT15=
EXTT16=
EXTT17=
EXTT18=
EXTT19=
PLAYORDER=
